:SAMPLES-PER-SECOND 30
:FRAME-RANGE 1-2045
:FULLY-SPECIFIED
:DEGREES
1215
root  -17.8597 35.1002 21.0068 -0.333099 -33.1638 -3.46094
RightUpLeg  -38.946 -34.9766 -3.53396
RightLeg  71.5065 -1.44777 -5.76339
RightFoot  6.09545 -1.95655 12.9825
RightToes  5.82063e-011 0 -3.6325e-017
Spine  27.5037 0.0948867 -1.0253
Spine1  6.19515 -0.481705 1.16564
HEad  -1.18798 14.8353 -10.5538
LeftShoulder1  2.95037 -6.13407 -24.4194
LeftArm  -21.9622 -45.6107 -29.1254
LeftForeArm  20.2851 -1.99325 -15.011
LeftHand  0.1663 -0.456675 -3.27635
RightShoulder  15.4586 31.5814 37.5692
RightArm  -6.16527 23.7926 16.4754
RightForeArm  -3.80103 15.242 10.0155
RightHand  0.847808 4.6538 9.47211
LeftUpLeg  -40.338 18.5556 -0.237994
LeftLeg  39.5858 0.997829 1.27251
LeftFoot  3.98935 -0.771321 5.54628
LeftToes  -3.90176e-010 -2.48536e-010 1.05482e-011
1216
root  -19.0308 34.8271 21.4731 -1.97205 -30.8777 -2.35626
RightUpLeg  -40.1671 -34.9651 -4.81581
RightLeg  75.5123 -2.14055 -10.739
RightFoot  8.94546 -0.977 5.8005
RightToes  5.82063e-011 0 -3.6325e-017
Spine  26.9342 0.813736 -2.13286
Spine1  7.5882 0.0141653 0.745468
HEad  -1.03059 14.5513 -7.52974
LeftShoulder1  2.8791 -5.9304 -24.3196
LeftArm  -18.0264 -46.5512 -29.1334
LeftForeArm  17.8662 -3.89675 -15.227
LeftHand  0.146283 -0.355314 -2.93912
RightShoulder  14.9123 29.1361 39.2267
RightArm  -4.67997 21.747 16.0932
RightForeArm  -5.76783 15.983 9.6447
RightHand  0.719298 4.22027 8.38855
LeftUpLeg  -39.545 16.2254 1.01353
LeftLeg  43.5116 0.483328 0.899091
LeftFoot  1.39603 -0.386569 3.38697
LeftToes  -3.90176e-010 -2.48536e-010 1.05482e-011
1217
root  -20.1095 35.0854 21.651 -1.32095 -29.7579 -1.91656
RightUpLeg  -40.8263 -30.8523 -4.62877
RightLeg  72.311 -3.16442 -12.0078
RightFoot  5.1369 -0.916975 6.56897
RightToes  5.82063e-011 0 -3.6325e-017
Spine  26.503 0.827204 -1.8848
Spine1  7.23291 1.04371 -2.13516
HEad  -0.348345 15.2379 -6.55626
LeftShoulder1  2.79635 -5.75643 -23.9825
LeftArm  -11.1976 -45.3633 -29.9591
LeftForeArm  14.5999 -6.71031 -15.0461
LeftHand  0.120772 -0.275289 -2.46371
RightShoulder  14.9256 28.3717 40.3366
RightArm  -8.67997 20.4964 16.6554
RightForeArm  -0.408963 12.2423 11.539
RightHand  0.663768 4.1352 7.79684
LeftUpLeg  -39.0101 17.5044 1.4125
LeftLeg  42.531 -0.990411 -0.567155
LeftFoot  1.39171 -0.396032 3.47308
LeftToes  -3.90176e-010 -2.48536e-010 1.05482e-011
1218
root  -21.065 35.4033 21.7122 -0.330994 -26.2026 -1.92148
RightUpLeg  -38.8605 -25.4324 -6.31481
RightLeg  64.3524 -3.70304 -8.96773
RightFoot  -0.199299 -0.874335 8.93231
RightToes  5.82063e-011 0 -3.6325e-017
Spine  27.2775 0.408601 -1.7005
Spine1  6.1854 0.21439 -0.912526
HEad  -1.18618 16.2761 -7.57058
LeftShoulder1  2.75025 -5.46385 -24.4762
LeftArm  -9.75282 -43.646 -31.133
LeftForeArm  14.1578 -7.39332 -14.797
LeftHand  0.130925 -0.553245 -2.51642
RightShoulder  15.2341 29.0589 40.2736
RightArm  -12.4876 20.0988 17.2752
RightForeArm  6.64187 7.52455 13.0706
RightHand  0.668383 4.38511 7.63499
LeftUpLeg  -38.5426 15.2317 2.29371
LeftLeg  40.4632 -2.32736 -1.73614
LeftFoot  2.19864 -0.256236 2.04634
LeftToes  -3.90176e-010 -2.48536e-010 1.05482e-011
1219
root  -22.0326 35.7263 21.7291 0.4039 -21.9229 -1.8602
RightUpLeg  -35.2859 -15.541 -9.82585
RightLeg  53.9168 -3.67108 -5.79986
RightFoot  -4.64315 -0.582739 9.396
RightToes  5.82063e-011 0 -3.6325e-017
Spine  27.9793 0.00861225 -0.330066
Spine1  6.18303 -0.342209 0.148842
HEad  -3.06343 16.7882 -8.82841
LeftShoulder1  2.85796 -5.65759 -25.029
LeftArm  -12.8722 -43.0476 -32.6153
LeftForeArm  17.107 -5.42284 -15.0822
LeftHand  0.149998 -0.594286 -2.8669
RightShoulder  15.431 29.3821 40.3939
RightArm  -14.8703 20.5592 17.5153
RightForeArm  13.0718 3.94952 13.4951
RightHand  0.6154 4.97072 6.57552
LeftUpLeg  -37.9501 13.0881 2.95212
LeftLeg  37.9181 -4.06334 -3.01825
LeftFoot  3.30759 -0.084715 0.503162
LeftToes  -3.90176e-010 -2.48536e-010 1.05482e-011
1220
root  -23.1525 35.9764 21.5493 1.14871 -17.6841 -0.515442
RightUpLeg  -32.7408 -0.476646 -15.6178
RightLeg  43.397 -1.87311 -2.19776
RightFoot  -7.89418 -0.440961 12.8127
RightToes  5.82063e-011 0 -3.6325e-017
Spine  28.6826 -0.191087 -0.248648
Spine1  6.1045 -0.403839 -0.165439
HEad  -5.16544 17.3217 -10.3819
LeftShoulder1  2.98409 -5.86628 -25.7095
LeftArm  -19.4762 -42.0358 -33.6747
LeftForeArm  19.0281 -2.73845 -14.8796
LeftHand  0.161236 -0.183889 -3.36452
RightShoulder  15.6612 29.6846 40.6346
RightArm  -16.6494 21.4398 17.6103
RightForeArm  18.5797 1.36902 13.2405
RightHand  0.515798 5.30042 5.27559
LeftUpLeg  -37.7844 12.7249 1.98361
LeftLeg  34.4407 -7.34741 -5.0352
LeftFoot  5.31687 0.0514132 -0.571924
LeftToes  -3.90176e-010 -2.48536e-010 1.05482e-011
1221
root  -24.4639 35.945 21.3052 1.9259 -12.4484 1.70062
RightUpLeg  -32.2198 14.598 -22.8813
RightLeg  36.3498 1.78787 1.15585
RightFoot  -8.62915 -0.448851 16.3634
RightToes  5.82063e-011 0 -3.6325e-017
Spine  28.8824 -0.534603 -1.49421
Spine1  6.22654 -0.762784 -0.504813
HEad  -7.66023 17.2628 -12.4338
LeftShoulder1  3.02561 -5.9341 -25.9296
LeftArm  -25.8381 -40.3699 -34.5808
LeftForeArm  19.9644 0.0791966 -13.9146
LeftHand  0.1763 -0.00924772 -3.82247
RightShoulder  15.8261 30.2259 40.3602
RightArm  -17.3134 22.2273 17.9507
RightForeArm  20.8608 0.0512803 12.9756
RightHand  0.419873 5.32188 4.22782
LeftUpLeg  -38.4691 10.3939 0.634593
LeftLeg  31.8176 -9.81922 -6.1652
LeftFoot  7.08616 0.37275 -2.56421
LeftToes  -3.90176e-010 -2.48536e-010 1.05482e-011
1222
root  -25.896 35.6486 21.1109 2.69858 -5.53046 3.8808
RightUpLeg  -31.2476 20.8903 -27.2003
RightLeg  35.8844 0.73354 0.317579
RightFoot  -14.6969 0.664372 25.7138
RightToes  5.82063e-011 0 -3.6325e-017
Spine  28.8936 -1.19444 -2.04925
Spine1  6.29741 -1.42517 -0.585141
HEad  -9.48396 16.1593 -14.0815
LeftShoulder1  3.06456 -6.00442 -26.1091
LeftArm  -27.6129 -39.6673 -35.1002
LeftForeArm  19.471 3.15217 -13.1778
LeftHand  0.162448 0.422804 -3.89063
RightShoulder  15.5565 30.2003 39.6349
RightArm  -17.9361 22.7728 18.1707
RightForeArm  20.4787 -1.10287 12.8028
RightHand  0.395549 5.4361 3.91628
LeftUpLeg  -39.8374 6.23736 -0.357804
LeftLeg  30.6982 -12.2979 -7.43546
LeftFoot  8.08421 0.811504 -5.02795
LeftToes  -3.90176e-010 -2.48536e-010 1.05482e-011
1223
root  -27.067 35.5518 20.7972 3.80991 1.47656 5.25165
RightUpLeg  -30.7446 17.0828 -26.5521
RightLeg  39.4163 -1.23939 -1.36524
RightFoot  -16.8717 1.15985 25.9864
RightToes  5.82063e-011 0 -3.6325e-017
Spine  29.9909 -1.87998 0.22971
Spine1  4.99839 -1.95022 0.177765
HEad  -10.7126 14.0546 -15.1385
LeftShoulder1  3.11742 -6.07478 -26.4367
LeftArm  -28.119 -39.4569 -35.3063
LeftForeArm  19.6391 6.31898 -12.6449
LeftHand  0.137748 0.825744 -3.66313
RightShoulder  15.009 29.7955 38.6142
RightArm  -18.7973 22.8208 17.8033
RightForeArm  19.8842 -2.85833 12.5026
RightHand  0.42692 5.3376 4.29669
LeftUpLeg  -40.5659 1.88827 -0.72875
LeftLeg  27.5501 -13.8886 -7.4142
LeftFoot  9.05031 1.48956 -8.5787
LeftToes  -3.90176e-010 -2.48536e-010 1.05482e-011
1224
root  -28.2345 35.4268 20.3521 5.34122 7.20291 6.57751
RightUpLeg  -31.9782 9.9298 -25.6576
RightLeg  43.2023 -0.343699 -0.641839
RightFoot  -17.4101 1.18007 24.1734
RightToes  5.82063e-011 0 -3.6325e-017
Spine  30.2084 -2.17884 1.76387
Spine1  4.86855 -1.81996 0.141801
HEad  -13.1308 11.764 -16.4592
LeftShoulder1  3.1667 -6.26239 -26.3122
LeftArm  -28.8439 -38.8001 -35.228
LeftForeArm  20.0128 7.80681 -12.1443
LeftHand  0.0948177 1.02521 -2.70724
RightShoulder  14.4795 30.046 36.7551
RightArm  -20.0488 23.4535 16.9339
RightForeArm  19.4653 -5.24245 12.1513
RightHand  0.449823 5.07712 4.67314
LeftUpLeg  -42.0066 0.708073 -1.72988
LeftLeg  24.8681 -12.6663 -6.00575
LeftFoot  8.20575 1.4297 -8.57986
LeftToes  -3.90176e-010 -2.48536e-010 1.05482e-011
1225
root  -29.3639 35.4036 20.0422 6.74203 11.7709 7.7225
RightUpLeg  -32.7599 4.80466 -24.7748
RightLeg  45.3925 -0.0777315 -0.395932
RightFoot  -17.9787 1.21807 22.8443
RightToes  5.82063e-011 0 -3.6325e-017
Spine  30.3063 -1.90564 1.96158
Spine1  5.30878 -1.52438 0.696085
HEad  -15.1955 10.2594 -16.8072
LeftShoulder1  3.08453 -6.08371 -26.0489
LeftArm  -28.0348 -37.6776 -34.6052
LeftForeArm  20.1701 7.94321 -12.5963
LeftHand  0.0371329 1.61081 -1.43553
RightShoulder  14.4586 30.7629 35.7877
RightArm  -21.615 24.2819 15.2205
RightForeArm  20.97 -7.78253 11.619
RightHand  0.419483 4.80431 4.47141
LeftUpLeg  -43.191 4.56763 -4.63567
LeftLeg  22.9967 -8.4457 -3.57983
LeftFoot  6.49058 0.497735 -3.42455
LeftToes  -3.90176e-010 -2.48536e-010 1.05482e-011
1226
root  -30.2983 35.3393 19.7607 8.21243 16.292 8.17822
RightUpLeg  -33.7149 0.232653 -23.446
RightLeg  47.2846 -0.284525 -0.657516
RightFoot  -18.2362 1.20496 21.8263
RightToes  5.82063e-011 0 -3.6325e-017
Spine  30.0957 -1.94341 3.20039
Spine1  5.09046 -1.19871 0.539212
HEad  -16.4342 8.66703 -15.9028
LeftShoulder1  3.00521 -5.92017 -25.7535
LeftArm  -26.6204 -35.7922 -34.2369
LeftForeArm  21.0035 8.03296 -13.2079
LeftHand  -0.0282558 1.91078 0.608693
RightShoulder  14.3725 30.7328 35.5789
RightArm  -23.0416 24.7627 13.4254
RightForeArm  23.2512 -7.71562 11.2913
RightHand  0.325365 4.43106 3.55657
LeftUpLeg  -45.3426 11.5618 -8.86124
LeftLeg  22.7555 1.43951 1.00266
LeftFoot  2.66979 1.0819 -8.92424
LeftToes  -3.90176e-010 -2.48536e-010 1.05482e-011
1227
root  -31.0786 35.4041 19.4804 9.73807 21.0501 8.38058
RightUpLeg  -34.1525 -3.81507 -21.9989
RightLeg  47.8742 -1.04294 -1.56809
RightFoot  -17.8644 1.09818 21.1899
RightToes  5.82063e-011 0 -3.6325e-017
Spine  29.4945 -2.01449 3.79828
Spine1  4.86444 -1.22365 1.17149
HEad  -17.2634 7.44053 -15.1403
LeftShoulder1  2.94695 -5.74135 -25.7389
LeftArm  -25.5446 -32.7925 -33.7282
LeftForeArm  23.2627 8.05276 -13.4567
LeftHand  -0.0722231 1.39095 1.90837
RightShoulder  13.9743 30.3993 34.8439
RightArm  -23.4546 24.5095 12.4432
RightForeArm  23.0451 -7.70579 11.2187
RightHand  0.200892 4.21019 2.15054
LeftUpLeg  -48.1286 17.3356 -12.9484
LeftLeg  24.9997 7.45639 4.12047
LeftFoot  2.00714 0.93021 -8.04533
LeftToes  -3.90176e-010 -2.48536e-010 1.05482e-011
